<svg width="295" height="166" viewBox="0 0 295 166" fill="none" xmlns="http://www.w3.org/2000/svg">
<rect width="295" height="166" fill="white"/>
<path d="M114.278 65.2V110H108.454L86.758 74.544V110H80.87V65.2H87.078L108.39 100.208V65.2H114.278ZM248.58 65.2L239.3 110H233.476L223.812 73.264L214.083 110H208.26L198.916 65.2H205.252L211.524 100.976L220.804 65.2H226.756L235.972 100.848L242.244 65.2H248.58Z" fill="#2B2B2B"/>
<g clip-path="url(#clip0)">
<path d="M73.1615 53.0506C74.079 52.6736 74.8208 52.0377 74.7982 50.9472C74.7657 49.426 73.2732 48.1836 72.1299 47.4052C70.8479 46.5327 69.1774 45.7962 67.5966 46.0511C65.7846 46.3431 65.634 48.3149 65.9159 49.7708C65.9613 50.0054 66.0232 50.2352 66.0922 50.4633C57.3822 48.7971 47.8925 49.6778 39.109 50.5756C39.1595 50.5039 39.1974 50.4196 39.197 50.309C39.1937 49.1363 38.9124 47.9277 37.7773 47.3595C36.85 46.8955 35.747 47.0752 34.8451 47.5023C33.9469 47.9274 33.2582 48.7447 33.161 49.7458C33.0791 50.5895 33.5705 51.2982 34.196 51.8492C32.9861 52.0489 31.7575 52.4726 31.3071 53.6656C30.884 54.7855 31.8036 55.9734 32.6185 56.6283C33.5885 57.408 34.9375 57.9191 36.1826 57.6399C37.3942 57.3681 37.8731 56.282 37.9604 55.1703C39.2772 55.6823 41.0104 55.5893 42.313 55.6306C45.0337 55.7172 47.7706 55.4925 50.4903 55.4302C56.0826 55.3019 61.8283 56.1988 67.3817 55.2062C66.9979 56.1362 66.915 57.2212 67.9557 57.7583C69.086 58.3414 70.6361 57.8605 71.7174 57.3914C72.7259 56.9538 74.1247 56.1649 74.3365 54.9655C74.501 54.0362 73.9233 53.4405 73.1615 53.0506ZM73.1953 54.7807C73.0234 55.5304 71.9262 56.0966 71.2642 56.4134C70.453 56.8015 69.4377 57.1139 68.5361 56.9186C67.5296 56.7007 68.1452 55.2549 68.3757 54.6647C68.4315 54.5218 68.374 54.4088 68.2758 54.3411C68.1946 54.1638 68.0318 54.028 67.8003 54.0352C64.9212 54.1232 62.0679 54.4088 59.1797 54.4041C56.5202 54.4 53.8696 54.1614 51.2108 54.1966C48.725 54.2294 46.2423 54.4078 43.7571 54.4768C41.8768 54.5289 39.8225 54.1387 37.9435 54.2673C37.8666 53.9103 37.3312 53.913 37.3167 54.3123C37.3163 54.3174 37.316 54.3228 37.3157 54.3279C37.3106 54.3286 37.3055 54.3286 37.3008 54.3293C37.0554 54.3645 37.0784 54.6914 37.2388 54.8031C37.2493 54.8102 37.2622 54.8149 37.273 54.822C37.1661 55.66 36.8371 56.4628 35.9054 56.633C35.0671 56.786 34.1273 56.301 33.4731 55.834C32.9661 55.4722 32.2097 54.7716 32.3258 54.0944C32.5207 52.9549 34.6512 52.7339 35.5017 52.6638C35.9694 52.6252 36.1856 52.0187 35.7474 51.7561C35.0234 51.3219 34.135 50.6921 34.1878 49.7451C34.2227 49.119 34.8579 48.6398 35.3568 48.3765C35.9159 48.0817 36.6828 47.9527 37.2795 48.2106C38.0934 48.5623 38.265 49.5119 38.2122 50.3079C38.2017 50.468 38.2609 50.5871 38.354 50.6667C38.1865 50.751 38.2129 51.02 38.4376 51.0407C47.7426 51.8989 57.0404 49.7383 66.3146 51.6586C66.6642 51.7311 66.9146 51.5067 66.9979 51.2407C67.1705 51.1462 67.2849 50.9625 67.2081 50.7107C66.9248 49.7756 66.211 47.5808 67.5878 47.1124C68.7456 46.7188 70.1965 47.4556 71.1623 48.0306C72.1523 48.6201 73.3466 49.5228 73.6847 50.6836C74.0705 52.0083 71.9445 52.3051 71.0043 52.4063C70.4127 52.4699 70.1701 53.3972 70.8523 53.5278C71.5526 53.6619 72.2734 53.8206 72.8809 54.2111C73.1845 54.4074 73.2322 54.6203 73.1953 54.7807Z" fill="#FC6C85"/>
<path d="M55.9019 103.189C55.0426 95.5331 54.9347 87.6059 55.3489 79.921C55.5354 76.4672 55.7401 73.0084 55.5594 69.5499C55.5114 68.6334 55.4643 66.7432 54.8819 65.5641C56.0437 65.5438 57.3453 64.8158 57.8567 63.8807C58.4761 62.7483 58.1258 61.3445 57.5413 60.2794C56.9978 59.2891 56.0075 58.2691 54.8247 58.1581C54.0771 58.088 53.522 58.4336 53.1179 58.9473C52.899 58.3459 52.5027 57.8467 51.8007 57.6524C50.7279 57.3553 49.5715 58.0535 48.8367 58.7723C47.9801 59.61 47.4671 60.7992 47.6691 61.9973C47.8911 63.3132 49.3633 64.3129 50.6524 64.5024C49.9752 70.574 50.4247 76.9475 50.4142 83.0465C50.4027 89.6345 50.1678 96.2442 50.3526 102.831C49.1789 102.232 47.4173 102.045 46.6183 103.173C45.8395 104.272 46.2768 105.762 46.8311 106.853C47.4149 108.003 48.4567 109.089 49.7914 109.228C50.842 109.336 51.5645 108.612 52.0596 107.717C53.0215 109.859 55.9303 110.85 58.051 109.106C60.5436 107.056 58.8795 102.573 55.9019 103.189ZM57.324 108.379C55.4525 110.279 52.3605 108.029 52.8276 105.706C52.9602 105.045 51.992 104.763 51.8099 105.425C51.55 106.369 51.0697 108.194 49.7918 108.137C48.9498 108.099 48.2715 107.048 47.9185 106.405C47.5615 105.756 47.173 104.693 47.5043 103.962C47.9734 102.926 49.671 103.576 50.5502 103.727C50.7506 103.827 51.0457 103.728 51.067 103.431C51.5313 96.9688 51.4302 90.4488 51.4843 83.9734C51.5381 77.5174 52.0376 70.7422 51.2958 64.3193C51.3496 64.1711 51.3137 63.9863 51.1584 63.8919C50.2098 63.3159 49.0083 63.0421 48.6905 61.8254C48.4803 61.0209 48.9897 60.1711 49.516 59.6093C49.9996 59.0932 50.6785 58.619 51.4136 58.6414C52.3463 58.6694 52.3659 60.0872 52.3443 60.7204C52.3246 61.2998 53.1931 61.4037 53.342 60.8554C53.5312 60.1579 53.9224 59.0295 54.8517 59.2221C55.643 59.3859 56.2407 60.1616 56.616 60.8212C57.0083 61.5093 57.2909 62.4735 56.9578 63.24C56.4038 64.5153 54.9641 64.1203 53.9468 64.5809C53.9295 64.5887 53.9163 64.6023 53.9011 64.6124C53.8625 64.6192 53.8337 64.6503 53.8185 64.6875C53.6801 64.8615 53.6794 65.1559 53.8314 65.3177C53.9112 65.8223 54.114 66.3357 54.2043 66.818C54.4747 68.2621 54.5059 69.7594 54.5377 71.2241C54.6101 74.529 54.3786 77.8443 54.2368 81.1448C54.1041 84.2418 54.2321 87.2766 54.3285 90.3709C54.4649 94.7581 54.3735 99.1653 54.9979 103.52C54.9969 103.52 54.9959 103.521 54.9949 103.521C54.4097 103.828 54.9238 104.71 55.508 104.411C55.6552 104.411 55.8011 104.358 55.8935 104.252C56.8857 103.931 57.7224 104.456 58.1285 105.492C58.5559 106.581 58.0919 107.599 57.324 108.379Z" fill="#FC6C85"/>
</g>
<path d="M189.082 46H132.921C130.753 46 129 47.753 129 49.9178V106.086C129 108.247 130.753 110 132.921 110H189.082C191.247 110 193 108.247 193 106.086V49.9178C193 47.7566 191.247 46 189.082 46ZM147.798 98.8006C144.154 98.8006 141.198 95.845 141.198 92.1933C141.198 88.5488 144.154 85.5932 147.798 85.5932C151.442 85.5932 154.405 88.5488 154.405 92.1933C154.405 95.8486 151.442 98.8006 147.798 98.8006ZM170.179 94.3945C170.179 95.4878 169.748 96.5119 168.972 97.2882C168.2 98.0572 167.165 98.4872 166.064 98.4872C163.797 98.4872 161.96 96.6468 161.96 94.3945L161.92 92.1022C161.92 84.7695 155.962 78.8109 148.629 78.8109H145.407C143.129 78.8109 141.274 76.9559 141.274 74.6672C141.274 72.3785 143.129 70.5198 145.407 70.5198H147.273H148.629C160.153 70.5198 169.614 79.5434 170.157 91.0671C170.168 91.1473 170.182 91.2093 170.182 91.2858L170.193 91.6867C170.204 91.8252 170.211 91.96 170.211 92.1022L170.179 94.3945ZM183.936 92.3208C183.936 92.3318 183.936 92.339 183.936 92.35V94.2888C183.936 96.3625 182.242 98.0462 180.153 98.0462C178.065 98.0462 176.37 96.3625 176.37 94.2888V91.5227C175.944 76.4238 163.677 64.2477 148.531 63.9817C148.509 63.9817 148.483 63.989 148.458 63.989H144.959C142.882 63.989 141.202 62.2979 141.202 60.2097C141.202 58.1178 142.882 56.4267 144.959 56.4267H148.461C148.552 56.4267 148.633 56.4486 148.72 56.4523C167.412 56.8094 182.653 71.5147 183.852 89.9957C183.911 90.2544 183.936 90.5095 183.936 90.7865V92.3208Z" fill="#FC6C85"/>
<defs>
<clipPath id="clip0">
<rect width="64" height="64" fill="white" transform="translate(21 46)"/>
</clipPath>
</defs>
</svg>
